<?xml version="1.0" standalone="no"?>
<!DOCTYPE svg PUBLIC "-//W3C//DTD SVG 20010904//EN"
 "http://www.w3.org/TR/2001/REC-SVG-20010904/DTD/svg10.dtd">
<svg version="1.0" xmlns="http://www.w3.org/2000/svg"
 width="300.000000pt" height="300.000000pt" viewBox="0 0 300.000000 300.000000"
 preserveAspectRatio="xMidYMid meet">
<metadata>
Created by potrace 1.10, written by Peter Selinger 2001-2011
</metadata>
<g transform="translate(0.000000,300.000000) scale(0.100000,-0.100000)"
fill="#000000" stroke="none">
<path d="M910 2309 c-202 -20 -424 -83 -536 -151 -80 -48 -152 -122 -180 -182
-35 -77 -47 -197 -42 -440 5 -236 15 -284 83 -391 44 -69 104 -114 230 -175
112 -54 182 -73 465 -125 215 -39 436 -83 607 -119 161 -35 268 -46 433 -46
219 1 356 32 547 126 107 53 205 137 246 213 48 87 87 341 87 561 0 276 -44
375 -196 446 -186 85 -583 200 -844 243 -287 47 -662 64 -900 40z m181 -31
c15 -19 18 -41 19 -133 0 -60 5 -117 10 -125 7 -10 10 20 10 95 0 89 -4 118
-19 148 l-19 37 93 0 93 0 -4 -37 c-10 -106 -11 -133 -3 -133 8 0 13 50 11
123 -1 24 2 26 14 16 17 -14 19 2 2 19 -15 15 64 16 207 1 55 -5 128 -11 162
-14 92 -6 396 -69 563 -116 153 -43 380 -123 449 -158 49 -25 116 -107 131
-159 20 -71 32 -228 25 -332 -18 -299 -61 -491 -121 -541 -12 -10 -10 -1 8 36
72 143 123 605 83 758 -8 32 -15 72 -15 88 0 18 -4 28 -10 24 -5 -3 -10 0 -10
8 0 21 -73 93 -117 115 -55 29 -197 77 -368 127 -153 44 -574 139 -582 131 -7
-6 83 -32 175 -51 45 -9 81 -23 88 -33 12 -16 13 -16 14 0 0 15 4 15 47 2 26
-8 52 -13 58 -10 7 2 5 -21 -6 -63 -19 -79 -33 -180 -20 -141 5 14 17 59 25
100 22 102 24 104 70 85 21 -9 45 -14 53 -10 12 4 14 0 9 -17 -8 -28 -36 -187
-36 -207 0 -37 12 5 25 89 22 130 22 131 84 111 28 -9 49 -20 47 -26 -4 -12
-41 -12 -75 -1 -15 5 -21 5 -17 -2 12 -19 76 -24 101 -8 31 20 36 20 28 -1 -6
-15 -4 -16 8 -6 8 6 26 9 41 6 27 -5 27 -6 13 -34 -11 -20 -15 -63 -15 -154 0
-81 -4 -125 -11 -125 -5 0 -8 4 -4 10 5 9 -24 19 -113 39 -56 12 -52 11 -93
31 -61 32 -207 68 -260 65 -56 -3 -54 -8 -34 98 18 93 18 90 5 82 -5 -3 -10
-15 -10 -26 0 -11 -7 -51 -16 -89 -14 -64 -17 -69 -35 -60 -17 9 -19 22 -19
102 0 50 -3 89 -6 85 -3 -3 -6 -43 -6 -87 0 -79 0 -82 -21 -75 -55 17 -86 22
-120 21 -20 -1 -38 3 -40 8 -2 5 -91 11 -198 14 -204 5 -352 -6 -449 -34 -30
-9 -84 -17 -120 -18 -36 -1 -71 -6 -78 -10 -7 -4 -27 -9 -45 -11 -69 -6 -177
-35 -225 -59 -28 -14 -77 -51 -111 -81 l-60 -56 -25 38 c-36 54 -48 128 -30
172 8 19 13 36 10 38 -2 2 -13 -21 -26 -51 l-22 -55 26 -56 c14 -31 41 -75 61
-99 33 -40 125 -192 125 -207 0 -3 -15 -4 -32 -2 l-33 3 29 -10 c16 -5 33 -7
36 -5 4 3 14 -9 21 -27 25 -60 181 -112 506 -167 391 -67 434 -72 524 -69 l89
3 0 38 c0 20 -4 37 -10 37 -5 0 -7 -13 -3 -30 5 -30 5 -30 -43 -32 -118 -3
-199 6 -561 67 l-32 6 15 41 c17 48 17 48 5 48 -5 0 -12 -17 -16 -37 -4 -21
-9 -41 -11 -44 -8 -14 -283 53 -382 92 -51 21 -55 26 -94 103 -22 45 -58 106
-78 136 l-38 56 62 53 c33 29 90 67 126 85 56 27 76 31 145 31 68 0 89 -4 139
-29 32 -16 78 -48 102 -71 l44 -42 57 29 c30 15 62 28 69 28 8 0 14 5 14 10 0
13 -1 13 -43 -5 -47 -20 -45 -20 -53 20 -3 20 -20 49 -36 65 l-29 30 28 11
c89 34 170 43 388 43 245 0 312 -12 435 -74 34 -17 64 -29 67 -26 5 5 -78 49
-137 72 -31 13 -31 14 -6 8 17 -3 46 -12 65 -21 20 -9 45 -18 56 -20 10 -2 22
-7 25 -11 3 -4 39 -8 80 -10 77 -2 162 -20 226 -47 36 -15 36 -15 19 -41 -9
-14 -14 -28 -12 -31 3 -2 13 6 22 20 14 22 21 24 72 21 62 -5 84 -13 37 -15
-20 0 -12 -5 28 -15 67 -16 142 -52 187 -90 l32 -26 -38 -28 c-64 -46 -190
-109 -250 -124 -52 -14 -307 -66 -320 -66 -3 0 -3 6 0 13 14 38 17 57 9 57 -4
0 -13 -17 -18 -37 -7 -31 -15 -38 -43 -46 -34 -8 -37 -7 -84 47 -27 31 -54 56
-60 56 -6 0 5 -17 24 -37 77 -83 75 -79 37 -99 -18 -9 -54 -36 -80 -60 -26
-24 -51 -44 -55 -44 -5 0 -9 12 -10 28 -6 78 -16 132 -25 132 -6 0 -8 -10 -4
-22 3 -13 9 -52 12 -88 6 -62 5 -66 -17 -77 -18 -9 -19 -12 -7 -12 9 -1 20 4
23 10 4 6 12 8 19 6 6 -3 33 17 60 43 73 72 132 97 307 131 238 46 277 57 374
107 68 35 110 66 172 127 45 44 87 93 92 109 21 53 13 118 -18 169 l-30 46 25
-11 c13 -6 24 -18 24 -25 0 -8 4 -12 9 -9 5 3 14 -1 21 -9 9 -10 9 -15 1 -15
-6 0 -11 -4 -11 -10 0 -5 8 -10 18 -10 10 0 25 -11 32 -24 40 -75 -48 -200
-215 -309 -56 -37 -245 -103 -362 -126 -181 -36 -279 -74 -399 -153 -60 -40
-125 -78 -144 -85 -52 -18 -204 -16 -353 7 -73 11 -215 31 -317 45 -349 49
-463 86 -548 180 -28 30 -84 119 -136 216 -48 90 -91 167 -95 171 -7 8 -8 -1
-11 -252 -2 -173 12 -310 32 -310 5 0 7 8 4 18 -15 55 -28 297 -20 390 l9 103
80 -147 c161 -298 190 -312 830 -404 483 -70 491 -69 676 56 112 75 208 113
364 143 201 40 388 114 474 187 l40 35 12 -40 c11 -39 5 -122 -18 -246 -3 -16
-2 -27 2 -23 27 25 44 246 23 293 -9 21 -9 29 4 42 25 24 38 7 38 -48 0 -31 4
-48 10 -44 14 9 12 65 -4 94 -12 21 -10 29 18 75 l31 53 12 -101 c12 -106 6
-208 -21 -356 -8 -41 -20 -109 -27 -150 -7 -41 -25 -113 -40 -160 -23 -74 -31
-87 -60 -102 -18 -10 -42 -27 -53 -39 -22 -23 -3 -17 27 9 9 8 20 13 23 10 5
-6 -78 -68 -90 -68 -3 0 4 20 15 45 11 25 18 51 16 58 -3 7 -10 -1 -16 -18
-23 -62 -44 -105 -49 -101 -2 3 1 20 6 38 18 59 23 88 13 88 -4 0 -11 -18 -15
-41 -10 -64 -33 -112 -51 -105 -8 3 -15 1 -15 -5 0 -6 -5 -7 -10 -4 -11 7
-148 -33 -156 -46 -5 -9 90 17 119 33 10 5 21 7 24 5 5 -6 -98 -46 -138 -54
l-27 -5 19 78 c10 44 19 88 19 99 -1 37 -16 -6 -35 -97 -13 -68 -21 -87 -36
-91 -17 -5 -19 -1 -14 26 17 99 24 182 23 257 l-1 85 -8 -95 c-5 -52 -14 -131
-20 -175 -6 -44 -11 -85 -12 -92 0 -11 -17 -16 -112 -29 -42 -6 -48 -5 -39 7
9 11 44 104 44 116 0 2 -4 3 -9 3 -5 0 -13 -15 -17 -32 -3 -18 -14 -48 -22
-65 l-16 -33 -100 1 c-56 0 -123 4 -151 8 -28 4 15 6 98 3 110 -4 147 -2 147
7 0 9 -48 12 -187 11 -138 -1 -208 3 -263 14 -41 9 -136 30 -210 46 -74 16
-227 46 -340 65 -403 70 -513 103 -653 194 -88 58 -120 94 -165 188 -47 101
-60 236 -44 489 12 192 23 240 68 305 34 50 46 42 12 -9 -23 -34 -48 -118 -48
-160 0 -11 8 -18 20 -19 11 -1 20 2 20 8 0 5 -6 9 -14 9 -9 0 -12 8 -8 25 3
17 11 25 26 25 19 1 19 2 4 11 -28 16 -22 39 10 39 l27 1 -23 13 c-21 11 -22
14 -8 25 9 8 16 20 16 28 0 30 36 7 57 -37 16 -32 25 -72 29 -138 4 -51 11
-95 15 -98 11 -7 0 130 -17 201 -10 44 -22 67 -44 86 -17 14 -30 30 -30 36 0
16 85 72 176 115 101 47 304 102 352 94 18 -3 32 0 32 5 0 25 46 2 62 -31 13
-25 18 -29 18 -15 0 11 -5 27 -10 35 -11 18 22 27 108 29 44 1 57 -3 73 -21z
m1533 -289 c-2 -4 9 -21 25 -38 61 -65 44 -174 -39 -259 l-33 -32 -34 37 c-20
21 -29 29 -22 19 13 -18 13 -18 -9 -7 -12 7 -20 16 -17 21 4 6 -1 7 -11 3 -12
-4 -15 -3 -10 5 5 8 1 10 -10 5 -12 -4 -15 -3 -10 5 4 8 2 10 -8 6 -12 -5 -14
14 -13 129 2 113 5 138 20 154 17 20 18 20 96 -11 43 -17 77 -34 75 -37z
m-1670 -104 c32 -24 56 -68 56 -102 0 -45 -19 -45 -70 0 -57 50 -107 75 -184
93 l-61 14 55 -3 c30 -2 66 -1 80 4 42 12 104 9 124 -6z"/>
<path d="M977 2270 c4 -14 8 -69 7 -123 0 -54 3 -92 7 -85 5 7 9 54 9 104 0
67 -4 95 -16 110 -14 18 -15 18 -7 -6z"/>
<path d="M1388 2278 c12 -15 10 -113 -4 -193 -4 -25 -3 -27 6 -12 6 10 12 61
13 114 2 77 -1 97 -13 101 -12 4 -13 3 -2 -10z"/>
<path d="M683 2245 c-145 -39 -351 -131 -384 -171 -9 -11 2 -7 27 9 37 23 44
24 61 12 28 -20 42 -58 52 -145 l8 -75 2 58 c1 73 -15 140 -40 163 -25 22 -24
34 2 34 11 0 30 5 41 11 36 19 53 -21 73 -174 4 -27 9 -46 12 -44 9 10 -17
179 -33 208 -19 37 -18 39 9 39 12 0 39 8 59 19 36 18 38 18 53 1 11 -12 18
-45 22 -97 3 -43 9 -85 14 -93 13 -24 -3 152 -16 187 -11 26 -11 32 0 37 21 8
37 -19 50 -87 l13 -62 1 47 c1 35 5 48 19 51 14 4 14 5 -3 6 -16 1 -52 49 -42
56 1 1 19 5 40 8 34 5 39 3 47 -19 6 -14 10 -53 11 -87 0 -34 4 -71 9 -82 6
-13 7 15 4 75 -9 139 -12 141 -111 115z"/>
<path d="M1679 2233 l-5 -32 60 -10 c72 -13 75 -13 195 -41 52 -11 102 -19
110 -18 18 4 -61 22 -326 74 -15 3 -23 13 -25 32 -3 27 -4 27 -9 -5z"/>
<path d="M1510 2196 c0 -12 -2 -52 -5 -87 -4 -52 -3 -56 4 -24 18 84 22 135
12 135 -6 0 -11 -11 -11 -24z"/>
<path d="M2226 1998 c-10 -31 -15 -102 -7 -88 9 16 22 100 15 100 -3 0 -6 -6
-8 -12z"/>
<path d="M1075 1835 c-26 -46 -13 -55 14 -10 23 40 25 45 13 45 -5 0 -17 -16
-27 -35z"/>
<path d="M1150 1853 c-19 -8 -30 -17 -24 -19 6 -3 31 4 55 15 27 12 36 20 24
20 -11 0 -36 -7 -55 -16z"/>
<path d="M1537 1772 c-44 -83 -70 -152 -57 -152 4 0 14 17 20 38 7 20 28 66
47 101 18 35 32 68 30 74 -1 5 -20 -22 -40 -61z"/>
<path d="M1249 1805 c76 -25 89 -28 61 -11 -14 8 -43 17 -65 20 l-40 6 44 -15z"/>
<path d="M1360 1805 c0 -13 35 -75 43 -75 9 0 8 6 -15 52 -11 24 -28 38 -28
23z"/>
<path d="M1615 1770 c-21 -22 -36 -42 -34 -45 3 -2 23 13 44 35 21 22 36 42
34 45 -3 2 -23 -13 -44 -35z"/>
<path d="M1723 1790 c-13 -5 -23 -11 -23 -12 0 -2 34 -3 77 -3 l76 -1 -49 13
c-57 15 -52 14 -81 3z"/>
<path d="M1160 1758 c100 -45 139 -69 196 -121 35 -32 64 -63 64 -68 0 -21
-55 -6 -117 31 -68 41 -158 66 -194 55 -31 -10 -17 -16 43 -19 40 -2 73 -13
127 -41 66 -35 71 -40 55 -52 -28 -20 -11 -25 26 -7 42 22 190 15 239 -10 18
-10 36 -15 39 -12 12 13 -17 27 -78 39 l-63 13 28 22 c82 65 217 99 328 84 71
-9 105 1 39 12 -140 23 -288 -12 -380 -89 -16 -14 -35 -25 -41 -25 -12 0 -35
42 -45 83 -3 15 -11 27 -16 27 -6 0 -1 -24 10 -52 11 -29 20 -53 20 -53 0 -1
-30 29 -67 65 -68 66 -176 131 -217 129 -19 0 -19 -1 4 -11z"/>
<path d="M1890 1739 c19 -12 50 -30 68 -41 17 -11 32 -15 32 -10 0 12 -101 72
-121 72 -8 0 2 -10 21 -21z"/>
<path d="M529 1711 c19 -17 37 -21 92 -21 38 0 69 4 69 9 0 5 -29 6 -65 4 -50
-5 -71 -2 -92 11 l-28 17 24 -20z"/>
<path d="M898 1703 c-25 -30 -38 -60 -38 -93 0 -23 -6 -33 -25 -40 -21 -8 -30
-3 -79 48 -30 31 -57 54 -61 51 -3 -4 18 -29 47 -57 29 -28 50 -54 46 -57 -4
-4 -36 8 -73 26 -50 24 -69 29 -77 21 -9 -9 -7 -12 7 -12 26 0 105 -39 105
-52 0 -10 -20 -8 -92 8 -18 4 -28 2 -28 -5 0 -6 11 -11 24 -11 13 0 31 -3 40
-6 30 -12 4 -24 -50 -24 -53 0 -133 -24 -121 -36 3 -4 24 1 47 10 53 21 104
22 96 1 -3 -8 -9 -22 -12 -30 -3 -8 -1 -15 5 -15 6 0 11 6 11 14 0 17 53 64
89 78 14 6 71 28 126 48 54 21 101 42 103 48 2 7 -16 3 -40 -8 -51 -23 -78
-25 -78 -6 0 30 22 72 48 93 19 16 22 23 11 23 -9 0 -23 -8 -31 -17z"/>
<path d="M2322 1709 c-62 -10 -151 -50 -177 -79 -29 -32 -35 -23 -20 28 18 56
17 52 6 52 -5 0 -15 -25 -22 -55 -7 -31 -15 -58 -19 -60 -4 -2 -20 9 -35 25
-16 17 -36 30 -44 30 -9 0 0 -13 23 -32 38 -31 38 -32 16 -40 -13 -5 -27 -4
-34 1 -6 5 -50 21 -98 36 -70 22 -102 26 -158 23 -38 -2 -74 -8 -80 -14 -8 -8
13 -9 70 -6 88 5 187 -15 247 -49 32 -18 33 -18 90 9 51 24 70 27 158 27 82 0
108 -4 143 -21 23 -12 42 -18 42 -14 0 28 -149 64 -222 54 -26 -4 -48 -4 -48
0 0 11 95 53 149 66 32 8 80 10 120 7 36 -4 59 -3 51 2 -25 14 -102 19 -158
10z"/>
<path d="M1248 1522 c-38 -65 -46 -67 -217 -68 -95 0 -166 -5 -181 -12 -20 -9
-13 -10 40 -4 36 4 106 6 155 4 50 -1 104 0 120 3 33 5 72 37 93 74 19 33 9
36 -10 3z"/>
<path d="M1926 1533 c-4 -4 -31 -10 -59 -14 l-52 -6 46 -2 c26 0 53 5 65 14
10 8 16 15 13 15 -3 0 -9 -3 -13 -7z"/>
<path d="M1312 1498 c-29 -29 3 -89 48 -88 8 1 0 7 -17 15 -35 15 -45 49 -21
73 7 7 10 12 7 12 -3 0 -10 -5 -17 -12z"/>
<path d="M1750 1465 c1 -16 40 -58 47 -51 4 4 -5 19 -20 34 -15 14 -27 22 -27
17z"/>
<path d="M1450 1409 c0 -5 32 -9 72 -9 39 0 69 2 67 4 -9 8 -139 13 -139 5z"/>
<path d="M1216 1335 c-16 -31 -26 -58 -23 -61 3 -3 18 18 34 48 37 70 36 68
26 68 -4 0 -21 -25 -37 -55z"/>
<path d="M751 1196 c-21 -22 -23 -31 -16 -81 4 -33 3 -61 -3 -68 -10 -12 -15
-39 -13 -69 1 -23 37 -55 67 -61 15 -3 45 6 74 20 l50 25 122 -26 c117 -25
125 -28 160 -67 50 -54 93 -62 131 -24 22 23 27 37 27 77 0 31 6 55 15 64 24
24 19 91 -7 108 -44 28 -73 29 -124 2 l-49 -25 -93 19 c-134 27 -160 38 -177
70 -21 41 -53 60 -100 60 -31 0 -47 -6 -64 -24z m112 -16 c14 -11 28 -33 31
-48 6 -24 14 -29 79 -45 39 -9 109 -24 155 -32 l83 -16 30 26 c35 29 74 32
101 8 26 -24 22 -58 -9 -81 -26 -19 -27 -22 -15 -56 33 -91 -66 -124 -110 -37
-17 34 -19 35 -153 62 -74 15 -142 29 -150 32 -8 4 -27 -6 -44 -23 -33 -34
-74 -39 -103 -13 -24 21 -23 65 2 88 24 21 26 48 5 65 -19 16 -19 40 1 68 19
28 63 29 97 2z"/>
<path d="M2098 718 c-16 -4 -9 -6 24 -7 26 -1 49 3 53 9 6 10 -38 9 -77 -2z"/>
<path d="M2460 2012 c0 -9 142 -74 148 -68 4 5 -51 34 -110 59 -21 9 -38 13
-38 9z"/>
<path d="M2450 1897 c0 -31 4 -58 9 -62 6 -3 7 18 4 52 -8 76 -13 80 -13 10z"/>
<path d="M2622 1933 c1 -4 -6 -40 -16 -80 -10 -39 -16 -79 -14 -89 2 -10 12
24 24 74 11 51 17 95 12 98 -5 3 -7 2 -6 -3z"/>
</g>
</svg>
